<?xml version="1.0" encoding="UTF-8" standalone="no"?>
<!-- Created with Notepad -->
<!-- (PD) December 18, 2005 - _Crotalus horridus_ -->
<!-- MOS Logo claimed as Fair Use to illustrate chip manufacturer. -->
<svg
   xmlns="http://www.w3.org/2000/svg"
   xmlns:xlink="http://www.w3.org/1999/xlink"
   version="1.0"
   width="32mm"
   height="65mm"
   viewBox="0 0 320 650"
   id="Pin configuration of MOS Technology 6510 CPU">
  <defs>
     <linearGradient id="ChipGradient">
        <stop offset="10%" stop-color="#404040" />
        <stop offset="95%" stop-color="#000000" />
     </linearGradient>
     <path
        fill="#C0C0C0"
        stroke="#000000"
        stroke-width="2.5"
        d="M 0.0,0.0 h +25.0 v +12.0 h -25.0 v Z"
        id="Pin" />
     <symbol id="ChipLogo">
        <rect
          fill="#A0A0FF"
          x="0" y="0" width="11" height="41"
        />
        <path
          fill="#A0A0FF"
          d="M 14,41 H 25 V 7 C 24,2.6 21,1.1 17,0 H 14 V 41 z"
        />
        <path
          fill="#A0A0FF"
          d="M 28,41 H 39 V 7 C 38,2.6 35,1.1 31,0 H 28 V 41 z"
        />
        <circle
          fill="#A0A0FF"
          cx="61.5" cy="20.5" r="20.5"
        />
        <path
          fill="#A0A0FF"
          d="M 123,0 H 91 C 88,0.7 85,1.7 84,5 V 12 H 123 V 0 z "
        />
        <rect
          fill="#A0A0FF"
          x="84" y="15" width="39" height="11"
        />
        <path
          fill="#A0A0FF"
          d="M 84,41 H 116 C 119,40.3 122,39.3 123,36 V 29 H 84 V 41 z"
        />
     </symbol>
  </defs>
  <g transform="translate (87.0, 25.0)">
     <use x="-25.0" y="11.4"  xlink:href="#Pin" />
     <use x="-25.0" y="36.8"  xlink:href="#Pin" />
     <use x="-25.0" y="62.2"  xlink:href="#Pin" />
     <use x="-25.0" y="87.6"  xlink:href="#Pin" />
     <use x="-25.0" y="113.0" xlink:href="#Pin" />
     <use x="-25.0" y="138.4" xlink:href="#Pin" />
     <use x="-25.0" y="163.8" xlink:href="#Pin" />
     <use x="-25.0" y="189.2" xlink:href="#Pin" />
     <use x="-25.0" y="214.6" xlink:href="#Pin" />
     <use x="-25.0" y="240.0" xlink:href="#Pin" />
     <use x="-25.0" y="265.4" xlink:href="#Pin" />
     <use x="-25.0" y="290.8" xlink:href="#Pin" />
     <use x="-25.0" y="316.2" xlink:href="#Pin" />
     <use x="-25.0" y="341.6" xlink:href="#Pin" />
     <use x="-25.0" y="367.0" xlink:href="#Pin" />
     <use x="-25.0" y="392.4" xlink:href="#Pin" />
     <use x="-25.0" y="417.8" xlink:href="#Pin" />
     <use x="-25.0" y="443.2" xlink:href="#Pin" />
     <use x="-25.0" y="468.6" xlink:href="#Pin" />
     <use x="-25.0" y="494.0" xlink:href="#Pin" />
     <use x="146.0" y="11.4"  xlink:href="#Pin" />
     <use x="146.0" y="36.8"  xlink:href="#Pin" />
     <use x="146.0" y="62.2"  xlink:href="#Pin" />
     <use x="146.0" y="87.6"  xlink:href="#Pin" />
     <use x="146.0" y="113.0" xlink:href="#Pin" />
     <use x="146.0" y="138.4" xlink:href="#Pin" />
     <use x="146.0" y="163.8" xlink:href="#Pin" />
     <use x="146.0" y="189.2" xlink:href="#Pin" />
     <use x="146.0" y="214.6" xlink:href="#Pin" />
     <use x="146.0" y="240.0" xlink:href="#Pin" />
     <use x="146.0" y="265.4" xlink:href="#Pin" />
     <use x="146.0" y="290.8" xlink:href="#Pin" />
     <use x="146.0" y="316.2" xlink:href="#Pin" />
     <use x="146.0" y="341.6" xlink:href="#Pin" />
     <use x="146.0" y="367.0" xlink:href="#Pin" />
     <use x="146.0" y="392.4" xlink:href="#Pin" />
     <use x="146.0" y="417.8" xlink:href="#Pin" />
     <use x="146.0" y="443.2" xlink:href="#Pin" />
     <use x="146.0" y="468.6" xlink:href="#Pin" />
     <use x="146.0" y="494.0" xlink:href="#Pin" />
     <text
       font-family="monospace"
       font-weight="bold"
       font-size="8"
       fill="#000000">
         <tspan x="-15.25" y="19.9">1</tspan>
         <tspan x="-15.25" y="45.3">2</tspan>
         <tspan x="-15.25" y="70.7">3</tspan>
         <tspan x="-15.25" y="96.1">4</tspan>
         <tspan x="-15.25" y="121.5">5</tspan>
         <tspan x="-15.25" y="146.9">6</tspan>
         <tspan x="-15.25" y="172.3">7</tspan>
         <tspan x="-15.25" y="197.7">8</tspan>
         <tspan x="-15.25" y="223.1">9</tspan>
         <tspan x="-17.25" y="248.5">10</tspan>
         <tspan x="-17.25" y="273.9">11</tspan>
         <tspan x="-17.25" y="299.3">12</tspan>
         <tspan x="-17.25" y="324.7">13</tspan>
         <tspan x="-17.25" y="350.1">14</tspan>
         <tspan x="-17.25" y="375.5">15</tspan>
         <tspan x="-17.25" y="400.9">16</tspan>
         <tspan x="-17.25" y="426.3">17</tspan>
         <tspan x="-17.25" y="451.7">18</tspan>
         <tspan x="-17.25" y="477.1">19</tspan>
         <tspan x="-17.25" y="502.5">20</tspan>
         <tspan x="153.75" y="19.9">40</tspan>
         <tspan x="153.75" y="45.3">39</tspan>
         <tspan x="153.75" y="70.7">38</tspan>
         <tspan x="153.75" y="96.1">37</tspan>
         <tspan x="153.75" y="121.5">36</tspan>
         <tspan x="153.75" y="146.9">35</tspan>
         <tspan x="153.75" y="172.3">34</tspan>
         <tspan x="153.75" y="197.7">33</tspan>
         <tspan x="153.75" y="223.1">32</tspan>
         <tspan x="153.75" y="248.5">31</tspan>
         <tspan x="153.75" y="273.9">30</tspan>
         <tspan x="153.75" y="299.3">29</tspan>
         <tspan x="153.75" y="324.7">28</tspan>
         <tspan x="153.75" y="350.1">27</tspan>
         <tspan x="153.75" y="375.5">26</tspan>
         <tspan x="153.75" y="400.9">25</tspan>
         <tspan x="153.75" y="426.3">24</tspan>
         <tspan x="153.75" y="451.7">23</tspan>
         <tspan x="153.75" y="477.1">22</tspan>
         <tspan x="153.75" y="502.5">21</tspan>
         <tspan x="-52.80" y="19.9">CLKIN</tspan>
         <tspan x="-52.80" y="45.3">/HALT</tspan>
         <tspan x="-48.00" y="70.7">/IRQ</tspan>
         <tspan x="-48.00" y="96.1">/NMI</tspan>
         <tspan x="-43.20" y="121.5">AEC</tspan>
         <tspan x="-43.20" y="146.9">VCC</tspan>
         <tspan x="-38.40" y="172.3">A0</tspan>
         <tspan x="-38.40" y="197.7">A1</tspan>
         <tspan x="-38.40" y="223.1">A2</tspan>
         <tspan x="-38.40" y="248.5">A3</tspan>
         <tspan x="-38.40" y="273.9">A4</tspan>
         <tspan x="-38.40" y="299.3">A5</tspan>
         <tspan x="-38.40" y="324.7">A6</tspan>
         <tspan x="-38.40" y="350.1">A7</tspan>
         <tspan x="-38.40" y="375.5">A8</tspan>
         <tspan x="-38.40" y="400.9">A9</tspan>
         <tspan x="-43.20" y="426.3">A10</tspan>
         <tspan x="-43.20" y="451.7">A11</tspan>
         <tspan x="-43.20" y="477.1">A12</tspan>
         <tspan x="-43.20" y="502.5">A13</tspan>
         <tspan x="174.80" y="19.9">/RESET</tspan>
         <tspan x="174.80" y="45.3">CLKOUT</tspan>
         <tspan x="174.80" y="70.7">R/W</tspan>
         <tspan x="174.80" y="96.1">D0</tspan>
         <tspan x="174.80" y="121.5">D1</tspan>
         <tspan x="174.80" y="146.9">D2</tspan>
         <tspan x="174.80" y="172.3">D3</tspan>
         <tspan x="174.80" y="197.7">D4</tspan>
         <tspan x="174.80" y="223.1">D5</tspan>
         <tspan x="174.80" y="248.5">D6</tspan>
         <tspan x="174.80" y="273.9">D7</tspan>
         <tspan x="174.80" y="299.3">P0</tspan>
         <tspan x="174.80" y="324.7">P1</tspan>
         <tspan x="174.80" y="350.1">P2</tspan>
         <tspan x="174.80" y="375.5">P3</tspan>
         <tspan x="174.80" y="400.9">P4</tspan>
         <tspan x="174.80" y="426.3">P5</tspan>
         <tspan x="174.80" y="451.7">A15</tspan>
         <tspan x="174.80" y="477.1">A14</tspan>
         <tspan x="174.80" y="502.5">GND</tspan>
     </text>
     <path
        fill="url(#ChipGradient)"
        stroke="#000000"
        stroke-width="2.5"
        d="M 0.0,0.0
           h +58.0
           c +7.5,+15.0 +22.5,+15.0 +30.0,0.0
           h +58.0
           v +517.5
           h -146.0
           Z"
     />
     <text
       font-family="monospace"
       font-weight="bold"
       font-size="48"
       fill="#A0A0FF"
       stroke="#000000"
       stroke-width="0.25">
       <tspan x="16.0" y="265.0">6510</tspan>
       <tspan x="30.4" y="310.0">CPU</tspan>
     </text>
     <use x="12.0" y="180.0" xlink:href="#ChipLogo" />
  </g>
  <text
    font-family="monospace"
    font-weight="bold"
    font-size="8"
    fill="#000000">
         <tspan x="10.0" y="560.0">&#8226;VCC: Power (Usually +5v)</tspan>
         <tspan x="170.0" y="560.0">&#8226;GND: Ground</tspan>
         <tspan x="170.0" y="570.0">&#8226;A15...A0: Address Bus</tspan>
         <tspan x="10.0" y="570.0">&#8226;D7...D0: Data Bus</tspan>
         <tspan x="10.0" y="580.0">&#8226;P5...P0: I/O Port</tspan>
         <tspan x="170.0" y="580.0">&#8226;/HALT: Suspend Processing</tspan>
         <tspan x="10.0" y="590.0">&#8226;CLKIN: Master Clock Input</tspan>
         <tspan x="170.0" y="590.0">&#8226;CLKOUT: Master Clock Output</tspan>
         <tspan x="10.0" y="600.0">&#8226;/NMI: Nonmaskable Interrupt</tspan>
         <tspan x="170.0" y="600.0">&#8226;/IRQ: Maskable Interrupt</tspan>
         <tspan x="10.0" y="610.0">&#8226;R/W: Read (High)/Write (Low)</tspan>
         <tspan x="170.0" y="610.0">&#8226;/RESET: Reset</tspan>
         <tspan x="10.0" y="620.0">&#8226;CE: Chip Select</tspan>
    </text>
</svg>
